<?xml version="1.0" encoding="UTF-8"?>
<svg enable-background="new 0 0 300 300" viewBox="0 0 300 300" xmlns="http://www.w3.org/2000/svg">
 <path d="m59.142,32.965c1.72.841 3.381,1.826 4.797,3.128 19.416,17.56 38.425,35.567 57.822,53.145 6.713,5.907 13.111,12.159 19.504,18.409 2.394,2.594 4.984,5.079 6.833,8.113 2.686,4.528.524,10.967-4.28,13.054-6.534,2.359-13.681-.492-18.172-5.468-11.6-12.925-21.897-26.927-32.192-40.894-10.094-13.351-19.956-26.875-29.463-40.649-1.714-2.884-3.993-5.537-4.849-8.838z" fill="none" stroke="#000" stroke-miterlimit="10" stroke-width=".1"/>
 <path d="m59.142,32.965c1.72.841 3.381,1.826 4.797,3.128 19.416,17.56 38.425,35.567 57.822,53.145 6.713,5.907 13.111,12.159 19.504,18.409 2.394,2.594 4.984,5.079 6.833,8.113 2.686,4.528.524,10.967-4.28,13.054-6.534,2.359-13.681-.492-18.172-5.468-11.6-12.925-21.897-26.927-32.192-40.894-10.094-13.351-19.956-26.875-29.463-40.649-1.714-2.884-3.993-5.537-4.849-8.838z"/>
 <path d="m60.49 109.15c1.582-4.805 6.226-7.51 10.552-9.509 17.012 5.179 28.705 19.537 39.335 32.935 4.92 6.594 10.626 13.966 9.779 22.701-1.159 4.021-3.664 7.513-6.234 10.759-12.007 14.147-28.137 23.925-44.338 32.556-7.064 3.58-13.848 7.751-21.108 10.92l-1.534-0.092c4.406-5.701 10.152-10.156 14.86-15.584 11.881-13.666 23.442-27.627 36.237-40.461-5.812-4.42-12.491-7.589-18.064-12.338-6.534-5.444-12.734-11.568-16.975-19.009-2.228-3.822-3.589-8.484-2.51-12.878z" fill="none" stroke="#000" stroke-miterlimit="10" stroke-width=".1"/>
 <path d="m60.49 109.15c1.582-4.805 6.226-7.51 10.552-9.509 17.012 5.179 28.705 19.537 39.335 32.935 4.92 6.594 10.626 13.966 9.779 22.701-1.159 4.021-3.664 7.513-6.234 10.759-12.007 14.147-28.137 23.925-44.338 32.556-7.064 3.58-13.848 7.751-21.108 10.92l-1.534-0.092c4.406-5.701 10.152-10.156 14.86-15.584 11.881-13.666 23.442-27.627 36.237-40.461-5.812-4.42-12.491-7.589-18.064-12.338-6.534-5.444-12.734-11.568-16.975-19.009-2.228-3.822-3.589-8.484-2.51-12.878z"/>
 <path d="m174.63 107.89c7.23-0.674 14.871 2.301 19.409 8.052 3.191 3.605 4.602 8.403 5.117 13.103-0.285 5.451-2.227 10.969-6.111 14.91-5.904 6.514-16.01 8.734-24.137 5.427-11.119-3.803-17.664-18.003-12.111-28.667 3.074-7.148 10.205-11.916 17.833-12.825z" fill="none" stroke="#000" stroke-miterlimit="10" stroke-width=".1"/>
 <path d="m174.63 107.89c7.23-0.674 14.871 2.301 19.409 8.052 3.191 3.605 4.602 8.403 5.117 13.103-0.285 5.451-2.227 10.969-6.111 14.91-5.904 6.514-16.01 8.734-24.137 5.427-11.119-3.803-17.664-18.003-12.111-28.667 3.074-7.148 10.205-11.916 17.833-12.825z"/>
 <path d="m0,213.381c23.629-.011 47.259.022 70.887-.023 2.548-.304 3.966,2.363 3.73,4.582 .004,12.432.021,24.865-.022,37.297 10.892-4.244 22.478-8.757 34.385-7.049 11.721,1.471 20.922,11.193 33.006,10.996 16.658-.303 29.452-13.854 45.953-14.868 10.733-.931 20.638,4.132 30.005,8.665 8.092,3.923 16.854,8.838 26.174,6.631 13.637-2.347 22.917-15.728 37.115-15.98 .599,1.43 1.713,2.909 1.029,4.543-.78,1.168-2.201,1.428-3.442,1.797-9.62,2.297-16.731,9.871-25.853,13.327-5.959,2.608-12.634,3.511-19.07,2.598-12.717-2.542-23.252-10.909-35.615-14.442-8.951-2.779-18.348.284-26.46,4.176-9.669,4.67-19.696,10.168-30.785,9.593-12.916.355-22.73-10.222-35.358-11.271-12.358-.632-23.273,6.003-34.966,8.753-1.06-1.051-2.481-2.102-2.286-3.789-.124-13.175-.001-26.355-.047-39.533h-68.378v-6.003z" fill="none" stroke="#000" stroke-miterlimit="10" stroke-width=".1"/>
 <path d="m0,213.381c23.629-.011 47.259.022 70.887-.023 2.548-.304 3.966,2.363 3.73,4.582 .004,12.432.021,24.865-.022,37.297 10.892-4.244 22.478-8.757 34.385-7.049 11.721,1.471 20.922,11.193 33.006,10.996 16.658-.303 29.452-13.854 45.953-14.868 10.733-.931 20.638,4.132 30.005,8.665 8.092,3.923 16.854,8.838 26.174,6.631 13.637-2.347 22.917-15.728 37.115-15.98 .599,1.43 1.713,2.909 1.029,4.543-.78,1.168-2.201,1.428-3.442,1.797-9.62,2.297-16.731,9.871-25.853,13.327-5.959,2.608-12.634,3.511-19.07,2.598-12.717-2.542-23.252-10.909-35.615-14.442-8.951-2.779-18.348.284-26.46,4.176-9.669,4.67-19.696,10.168-30.785,9.593-12.916.355-22.73-10.222-35.358-11.271-12.358-.632-23.273,6.003-34.966,8.753-1.06-1.051-2.481-2.102-2.286-3.789-.124-13.175-.001-26.355-.047-39.533h-68.378v-6.003z"/>
</svg>
